<svg id="Group_2724" data-name="Group 2724" xmlns="http://www.w3.org/2000/svg" xmlns:xlink="http://www.w3.org/1999/xlink" width="355.759" height="75.174" viewBox="0 0 355.759 75.174">
  <defs>
    <clipPath id="clip-path">
      <path id="Path_5570" data-name="Path 5570" d="M-159.554,2307.392h-25.619l17.347-73.355h25.619Z" transform="translate(185.172 -2234.037)" fill="#feb33e"/>
    </clipPath>
  </defs>
  <path id="パス_53" data-name="パス 53" d="M-100.994,2233.1h0c-14.056.016-25.438,11.677-25.422,26.047a26.521,26.521,0,0,0,1.61,9.075l.59,1.634,36.635-.039Z" transform="translate(314.265 -2233.097)" fill="#feb33e"/>
  <path id="パス_53-2" data-name="パス 53" d="M-209.29,2234.022h0c-14.055.015-25.436,11.675-25.421,26.046a26.512,26.512,0,0,0,1.608,9.075l.59,1.633,36.637-.038Z" transform="translate(234.711 -2232.417)" fill="#feb33e"/>
  <path id="パス_53-3" data-name="パス 53" d="M-197.311,2270.776h0c14.056-.016,25.438-11.677,25.422-26.046a26.575,26.575,0,0,0-1.608-9.076l-.59-1.632-36.637.038Z" transform="translate(252.333 -2232.417)" fill="#feb33e"/>
  <ellipse id="楕円形_26" data-name="楕円形 26" cx="8.606" cy="8.798" rx="8.606" ry="8.798" transform="translate(142.113 1.596)" fill="#feb33e"/>
  <ellipse id="楕円形_27" data-name="楕円形 27" cx="8.606" cy="8.798" rx="8.606" ry="8.798" transform="translate(161.338 1.577)" fill="#feb33e"/>
  <rect id="長方形_100" data-name="長方形 100" width="29.751" height="2.028" transform="matrix(1, -0.001, 0.001, 1, 25.426, 18.528)" fill="#feb33e"/>
  <rect id="長方形_101" data-name="長方形 101" width="29.751" height="2.028" transform="matrix(1, -0.001, 0.001, 1, 25.409, 1.634)" fill="#feb33e"/>
  <rect id="長方形_102" data-name="長方形 102" width="29.751" height="2.028" transform="matrix(1, -0.001, 0.001, 1, 25.413, 4.994)" fill="#feb33e"/>
  <rect id="長方形_103" data-name="長方形 103" width="29.751" height="2.028" transform="matrix(1, -0.001, 0.001, 1, 25.416, 8.357)" fill="#feb33e"/>
  <rect id="長方形_104" data-name="長方形 104" width="29.751" height="2.028" transform="matrix(1, -0.001, 0.001, 1, 25.419, 11.72)" fill="#feb33e"/>
  <rect id="長方形_105" data-name="長方形 105" width="29.751" height="2.028" transform="matrix(1, -0.001, 0.001, 1, 25.423, 15.165)" fill="#feb33e"/>
  <rect id="長方形_106" data-name="長方形 106" width="29.751" height="2.028" transform="matrix(1, -0.001, 0.001, 1, 25.44, 32.059)" fill="#feb33e"/>
  <rect id="長方形_107" data-name="長方形 107" width="29.751" height="2.028" transform="matrix(1, -0.001, 0.001, 1, 25.444, 35.419)" fill="#feb33e"/>
  <rect id="長方形_108" data-name="長方形 108" width="29.751" height="2.028" transform="matrix(1, -0.001, 0.001, 1, 25.447, 38.865)" fill="#feb33e"/>
  <rect id="長方形_109" data-name="長方形 109" width="29.751" height="2.028" transform="matrix(1, -0.001, 0.001, 1, 25.43, 21.888)" fill="#feb33e"/>
  <rect id="長方形_110" data-name="長方形 110" width="29.751" height="2.028" transform="matrix(1, -0.001, 0.001, 1, 25.433, 25.25)" fill="#feb33e"/>
  <rect id="長方形_111" data-name="長方形 111" width="29.751" height="2.028" transform="matrix(1, -0.001, 0.001, 1, 25.437, 28.697)" fill="#feb33e"/>
  <rect id="長方形_112" data-name="長方形 112" width="29.751" height="2.028" transform="matrix(1, -0.001, 0.001, 1, 25.464, 55.944)" fill="#feb33e"/>
  <rect id="長方形_113" data-name="長方形 113" width="29.751" height="2.028" transform="matrix(1, -0.001, 0.001, 1, 25.468, 59.307)" fill="#feb33e"/>
  <rect id="長方形_114" data-name="長方形 114" width="29.751" height="2.028" transform="matrix(1, -0.001, 0.001, 1, 25.471, 62.75)" fill="#feb33e"/>
  <rect id="長方形_115" data-name="長方形 115" width="29.751" height="2.028" transform="matrix(1, -0.001, 0.001, 1, 25.475, 66.18)" fill="#feb33e"/>
  <rect id="長方形_116" data-name="長方形 116" width="29.751" height="2.028" transform="matrix(1, -0.001, 0.001, 1, 25.478, 69.542)" fill="#feb33e"/>
  <rect id="長方形_117" data-name="長方形 117" width="29.751" height="2.028" transform="matrix(1, -0.001, 0.001, 1, 25.482, 72.988)" fill="#feb33e"/>
  <rect id="長方形_118" data-name="長方形 118" width="29.751" height="2.028" transform="matrix(1, -0.001, 0.001, 1, 25.454, 45.772)" fill="#feb33e"/>
  <rect id="長方形_119" data-name="長方形 119" width="29.751" height="2.028" transform="matrix(1, -0.001, 0.001, 1, 25.458, 49.135)" fill="#feb33e"/>
  <rect id="長方形_120" data-name="長方形 120" width="29.751" height="2.028" transform="matrix(1, -0.001, 0.001, 1, 25.451, 42.266)" fill="#feb33e"/>
  <rect id="長方形_121" data-name="長方形 121" width="29.751" height="2.028" transform="matrix(1, -0.001, 0.001, 1, 25.461, 52.581)" fill="#feb33e"/>
  <path id="パス_53-4" data-name="パス 53" d="M-38.583,2291.524h0a25.425,25.425,0,0,0,25.4-25.453,25.467,25.467,0,0,0-1.606-8.868l-.59-1.6-36.6.037Z" transform="translate(368.946 -2216.561)" fill="#feb33e"/>
  <rect id="長方形_100-2" data-name="長方形 100" width="29.751" height="2.028" transform="matrix(1, -0.001, 0.001, 1, 283.929, 18.528)" fill="#feb33e"/>
  <rect id="長方形_101-2" data-name="長方形 101" width="29.751" height="2.028" transform="matrix(1, -0.001, 0.001, 1, 283.912, 1.634)" fill="#feb33e"/>
  <rect id="長方形_102-2" data-name="長方形 102" width="29.751" height="2.028" transform="matrix(1, -0.001, 0.001, 1, 283.915, 4.994)" fill="#feb33e"/>
  <rect id="長方形_103-2" data-name="長方形 103" width="29.751" height="2.028" transform="matrix(1, -0.001, 0.001, 1, 283.918, 8.357)" fill="#feb33e"/>
  <rect id="長方形_104-2" data-name="長方形 104" width="29.751" height="2.028" transform="matrix(1, -0.001, 0.001, 1, 283.922, 11.72)" fill="#feb33e"/>
  <rect id="長方形_105-2" data-name="長方形 105" width="29.751" height="2.028" transform="matrix(1, -0.001, 0.001, 1, 283.925, 15.165)" fill="#feb33e"/>
  <rect id="長方形_106-2" data-name="長方形 106" width="29.751" height="2.028" transform="matrix(1, -0.001, 0.001, 1, 283.943, 32.059)" fill="#feb33e"/>
  <rect id="長方形_107-2" data-name="長方形 107" width="29.751" height="2.028" transform="matrix(1, -0.001, 0.001, 1, 283.946, 35.419)" fill="#feb33e"/>
  <rect id="長方形_108-2" data-name="長方形 108" width="29.751" height="2.028" transform="matrix(1, -0.001, 0.001, 1, 283.949, 38.865)" fill="#feb33e"/>
  <rect id="長方形_109-2" data-name="長方形 109" width="29.751" height="2.028" transform="matrix(1, -0.001, 0.001, 1, 283.932, 21.888)" fill="#feb33e"/>
  <rect id="長方形_110-2" data-name="長方形 110" width="29.751" height="2.028" transform="matrix(1, -0.001, 0.001, 1, 283.936, 25.25)" fill="#feb33e"/>
  <rect id="長方形_111-2" data-name="長方形 111" width="29.751" height="2.028" transform="matrix(1, -0.001, 0.001, 1, 283.939, 28.697)" fill="#feb33e"/>
  <rect id="長方形_112-2" data-name="長方形 112" width="29.751" height="2.028" transform="matrix(1, -0.001, 0.001, 1, 283.967, 55.944)" fill="#feb33e"/>
  <rect id="長方形_113-2" data-name="長方形 113" width="29.751" height="2.028" transform="matrix(1, -0.001, 0.001, 1, 283.97, 59.307)" fill="#feb33e"/>
  <rect id="長方形_114-2" data-name="長方形 114" width="29.751" height="2.028" transform="matrix(1, -0.001, 0.001, 1, 283.974, 62.75)" fill="#feb33e"/>
  <rect id="長方形_115-2" data-name="長方形 115" width="29.751" height="2.028" transform="matrix(1, -0.001, 0.001, 1, 283.977, 66.18)" fill="#feb33e"/>
  <rect id="長方形_116-2" data-name="長方形 116" width="29.751" height="2.028" transform="matrix(1, -0.001, 0.001, 1, 283.981, 69.542)" fill="#feb33e"/>
  <rect id="長方形_117-2" data-name="長方形 117" width="29.751" height="2.028" transform="matrix(1, -0.001, 0.001, 1, 283.984, 72.988)" fill="#feb33e"/>
  <rect id="長方形_118-2" data-name="長方形 118" width="29.751" height="2.028" transform="matrix(1, -0.001, 0.001, 1, 283.956, 45.772)" fill="#feb33e"/>
  <rect id="長方形_119-2" data-name="長方形 119" width="29.751" height="2.028" transform="matrix(1, -0.001, 0.001, 1, 283.96, 49.135)" fill="#feb33e"/>
  <rect id="長方形_120-2" data-name="長方形 120" width="29.751" height="2.028" transform="matrix(1, -0.001, 0.001, 1, 283.953, 42.266)" fill="#feb33e"/>
  <rect id="長方形_121-2" data-name="長方形 121" width="29.751" height="2.028" transform="matrix(1, -0.001, 0.001, 1, 283.963, 52.581)" fill="#feb33e"/>
  <rect id="長方形_154" data-name="長方形 154" width="2.03" height="22.567" transform="matrix(1, -0.001, 0.001, 1, 201.666, 52.592)" fill="#feb33e"/>
  <rect id="長方形_155" data-name="長方形 155" width="2.03" height="22.567" transform="translate(205.032 52.588) rotate(-0.06)" fill="#feb33e"/>
  <rect id="長方形_156" data-name="長方形 156" width="2.03" height="22.567" transform="translate(208.482 52.585) rotate(-0.06)" fill="#feb33e"/>
  <rect id="長方形_157" data-name="長方形 157" width="2.03" height="22.567" transform="translate(191.487 52.602) rotate(-0.06)" fill="#feb33e"/>
  <rect id="長方形_158" data-name="長方形 158" width="2.03" height="22.567" transform="matrix(1, -0.001, 0.001, 1, 194.853, 52.599)" fill="#feb33e"/>
  <rect id="長方形_159" data-name="長方形 159" width="2.03" height="22.567" transform="translate(187.974 52.606) rotate(-0.06)" fill="#feb33e"/>
  <rect id="長方形_160" data-name="長方形 160" width="2.03" height="22.567" transform="matrix(1, -0.001, 0.001, 1, 198.3, 52.595)" fill="#feb33e"/>
  <rect id="長方形_161" data-name="長方形 161" width="2.03" height="22.567" transform="translate(225.575 52.567) rotate(-0.06)" fill="#feb33e"/>
  <rect id="長方形_162" data-name="長方形 162" width="2.03" height="22.567" transform="translate(228.941 52.563) rotate(-0.06)" fill="#feb33e"/>
  <rect id="長方形_163" data-name="長方形 163" width="2.03" height="22.567" transform="matrix(1, -0.001, 0.001, 1, 232.391, 52.56)" fill="#feb33e"/>
  <rect id="長方形_164" data-name="長方形 164" width="2.03" height="22.567" transform="translate(235.824 52.556) rotate(-0.06)" fill="#feb33e"/>
  <rect id="長方形_165" data-name="長方形 165" width="2.03" height="22.567" transform="translate(239.187 52.553) rotate(-0.06)" fill="#feb33e"/>
  <rect id="長方形_166" data-name="長方形 166" width="2.03" height="22.567" transform="translate(242.637 52.549) rotate(-0.06)" fill="#feb33e"/>
  <rect id="長方形_167" data-name="長方形 167" width="2.03" height="22.567" transform="matrix(1, -0.001, 0.001, 1, 215.396, 52.577)" fill="#feb33e"/>
  <rect id="長方形_168" data-name="長方形 168" width="2.03" height="22.567" transform="translate(218.763 52.574) rotate(-0.06)" fill="#feb33e"/>
  <rect id="長方形_169" data-name="長方形 169" width="2.03" height="22.567" transform="matrix(1, -0.001, 0.001, 1, 211.883, 52.581)" fill="#feb33e"/>
  <rect id="長方形_170" data-name="長方形 170" width="2.03" height="22.567" transform="translate(222.209 52.571) rotate(-0.06)" fill="#feb33e"/>
  <path id="パス_48" data-name="パス 48" d="M-76.649,2299.207l-29.945.031,19.027-53.863,29.946-.031Z" transform="translate(328.827 -2224.101)" fill="#feb33e"/>
  <path id="パス_48-2" data-name="パス 48" d="M-152.616,2306.574l33.018.035-22.026-72.578-33.02-.036Z" transform="translate(278.837 -2232.438)" fill="#feb33e"/>
  <g id="Group_2500" data-name="Group 2500" transform="translate(85.93 1.63)">
    <g id="Group_2499" data-name="Group 2499" clip-path="url(#clip-path)">
      <rect id="長方形_100-3" data-name="長方形 100" width="40.088" height="2.028" transform="translate(3.269 16.901) rotate(-0.058)" fill="#feb33e"/>
      <rect id="長方形_101-3" data-name="長方形 101" width="40.088" height="2.028" transform="translate(3.252 0.007) rotate(-0.058)" fill="#feb33e"/>
      <rect id="長方形_102-3" data-name="長方形 102" width="40.088" height="2.028" transform="translate(3.255 3.367) rotate(-0.058)" fill="#feb33e"/>
      <rect id="長方形_103-3" data-name="長方形 103" width="40.088" height="2.028" transform="translate(3.259 6.73) rotate(-0.058)" fill="#feb33e"/>
      <rect id="長方形_104-3" data-name="長方形 104" width="40.088" height="2.028" transform="translate(3.262 10.093) rotate(-0.058)" fill="#feb33e"/>
      <rect id="長方形_105-3" data-name="長方形 105" width="40.088" height="2.028" transform="translate(3.266 13.539) rotate(-0.058)" fill="#feb33e"/>
      <rect id="長方形_106-3" data-name="長方形 106" width="40.088" height="2.028" transform="translate(3.283 30.432) rotate(-0.058)" fill="#feb33e"/>
      <rect id="長方形_107-3" data-name="長方形 107" width="40.088" height="2.028" transform="translate(3.286 33.792) rotate(-0.058)" fill="#feb33e"/>
      <rect id="長方形_108-3" data-name="長方形 108" width="40.088" height="2.028" transform="translate(3.29 37.238) rotate(-0.058)" fill="#feb33e"/>
      <rect id="長方形_109-3" data-name="長方形 109" width="40.088" height="2.028" transform="translate(3.272 20.261) rotate(-0.058)" fill="#feb33e"/>
      <rect id="長方形_110-3" data-name="長方形 110" width="40.088" height="2.028" transform="translate(3.276 23.624) rotate(-0.058)" fill="#feb33e"/>
      <rect id="長方形_111-3" data-name="長方形 111" width="40.088" height="2.028" transform="translate(3.279 27.069) rotate(-0.058)" fill="#feb33e"/>
      <rect id="長方形_112-3" data-name="長方形 112" width="40.088" height="2.028" transform="translate(3.307 54.317) rotate(-0.058)" fill="#feb33e"/>
      <rect id="長方形_113-3" data-name="長方形 113" width="57.435" height="2.028" transform="translate(-14.037 57.689) rotate(-0.058)" fill="#feb33e"/>
      <rect id="長方形_114-3" data-name="長方形 114" width="57.435" height="2.028" transform="translate(-14.033 61.131) rotate(-0.058)" fill="#feb33e"/>
      <rect id="長方形_115-3" data-name="長方形 115" width="57.435" height="2.028" transform="translate(-14.03 64.561) rotate(-0.058)" fill="#feb33e"/>
      <rect id="長方形_116-3" data-name="長方形 116" width="57.435" height="2.028" transform="translate(-14.026 67.924) rotate(-0.058)" fill="#feb33e"/>
      <rect id="長方形_117-3" data-name="長方形 117" width="57.435" height="2.028" transform="translate(-14.023 71.37) rotate(-0.058)" fill="#feb33e"/>
      <rect id="長方形_118-3" data-name="長方形 118" width="40.088" height="2.028" transform="translate(3.297 44.145) rotate(-0.058)" fill="#feb33e"/>
      <rect id="長方形_119-3" data-name="長方形 119" width="40.088" height="2.028" transform="translate(3.3 47.508) rotate(-0.058)" fill="#feb33e"/>
      <rect id="長方形_120-3" data-name="長方形 120" width="40.088" height="2.028" transform="translate(3.293 40.639) rotate(-0.058)" fill="#feb33e"/>
      <rect id="長方形_121-3" data-name="長方形 121" width="40.088" height="2.028" transform="translate(3.304 50.954) rotate(-0.058)" fill="#feb33e"/>
    </g>
  </g>
  <rect id="Rectangle_2386" data-name="Rectangle 2386" width="29.789" height="36.752" transform="translate(25.409 1.556)" fill="#feb33e"/>
</svg>
