<svg xmlns="http://www.w3.org/2000/svg" width="726.118" height="307.099" viewBox="0 0 726.118 307.099">
  <g id="Group_2346" data-name="Group 2346" transform="translate(-244 -271.177)">
    <circle id="楕円形_5" data-name="楕円形 5" cx="83.193" cy="83.193" r="83.193" transform="translate(458.916 319.476)" fill="#59aac3"/>
    <circle id="楕円形_6" data-name="楕円形 6" cx="83.193" cy="83.193" r="83.193" transform="translate(646.063 319.476)" fill="#ef4441"/>
    <path id="パス_18" data-name="パス 18" d="M-697.937,8385.074l25.967,83.227L-646,8551.528H-749.875l25.967-83.228Z" transform="translate(993.875 -8065.126)" fill="#2a8648"/>
    <path id="Path_5073" data-name="Path 5073" d="M-711.565,8493.609v-.712a9.015,9.015,0,0,1,9.014-9.015H-692.3a9.013,9.013,0,0,0,9.014-9.013" transform="translate(1011.832 -8023.036)" fill="none" stroke="#f086ab" stroke-linecap="round" stroke-miterlimit="10" stroke-width="1.889"/>
    <g id="Group_2330" data-name="Group 2330" transform="translate(301.299 440.392)">
      <rect id="Rectangle_1485" data-name="Rectangle 1485" width="24.112" height="15.418" rx="7.709" transform="translate(0 3.804)" fill="#f086ab"/>
      <rect id="Rectangle_1486" data-name="Rectangle 1486" width="10.881" height="18.398" transform="translate(6.615 19.221)" fill="#1f2e7e"/>
      <path id="Path_3528" data-name="Path 3528" d="M-705.492,8467.08l1.58,2.737,1.58,2.736h-6.319l1.58-2.736Z" transform="translate(711.899 -8467.08)" fill="#f086ab"/>
      <path id="Path_3529" data-name="Path 3529" d="M-697.882,8467.08l1.58,2.737,1.58,2.736h-6.319l1.58-2.736Z" transform="translate(715.466 -8467.08)" fill="#f086ab"/>
      <circle id="Ellipse_82" data-name="Ellipse 82" cx="2.28" cy="2.28" r="2.28" transform="translate(6.438 7.927)" fill="#fff"/>
      <circle id="Ellipse_83" data-name="Ellipse 83" cx="2.28" cy="2.28" r="2.28" transform="translate(13.114 7.927)" fill="#fff"/>
      <circle id="Ellipse_84" data-name="Ellipse 84" cx="1.462" cy="1.462" r="1.462" transform="translate(7.256 8.745)"/>
      <circle id="Ellipse_85" data-name="Ellipse 85" cx="1.462" cy="1.462" r="1.462" transform="translate(13.931 8.745)"/>
      <path id="Path_3530" data-name="Path 3530" d="M-704.864,8501.339h0a1.494,1.494,0,0,1-1.494-1.5v-7.15h3.761l-.781,7.309A1.5,1.5,0,0,1-704.864,8501.339Z" transform="translate(712.974 -8455.073)" fill="#f086ab"/>
      <path id="Path_3531" data-name="Path 3531" d="M-699.243,8501.339h0A1.5,1.5,0,0,1-700.73,8500l-.781-7.309h3.761v7.15A1.494,1.494,0,0,1-699.243,8501.339Z" transform="translate(715.246 -8455.073)" fill="#f086ab"/>
      <rect id="Rectangle_1487" data-name="Rectangle 1487" width="10.881" height="2.557" transform="translate(6.615 21.911)" fill="#59aac3"/>
      <rect id="Rectangle_1488" data-name="Rectangle 1488" width="10.881" height="2.557" transform="translate(6.615 27.142)" fill="#59aac3"/>
      <rect id="Rectangle_1489" data-name="Rectangle 1489" width="10.881" height="2.557" transform="translate(6.615 32.381)" fill="#59aac3"/>
      <path id="Path_3532" data-name="Path 3532" d="M-700.726,8475.258a1.462,1.462,0,0,1-1.461,1.464,1.462,1.462,0,0,1-1.461-1.464" transform="translate(714.243 -8463.245)"/>
    </g>
    <path id="Path_5074" data-name="Path 5074" d="M-690,8493.609v-.712a9.016,9.016,0,0,1,9.014-9.015h10.258a9.014,9.014,0,0,0,9.014-9.013" transform="translate(1021.941 -8023.036)" fill="none" stroke="#f086ab" stroke-linecap="round" stroke-miterlimit="10" stroke-width="1.889"/>
    <g id="Group_2331" data-name="Group 2331" transform="translate(332.975 440.392)">
      <rect id="Rectangle_1490" data-name="Rectangle 1490" width="24.112" height="15.418" rx="7.709" transform="translate(0 3.804)" fill="#f086ab"/>
      <rect id="Rectangle_1491" data-name="Rectangle 1491" width="10.881" height="18.398" transform="translate(6.615 19.221)" fill="#1f2e7e"/>
      <path id="Path_3534" data-name="Path 3534" d="M-683.926,8467.08l1.58,2.737,1.58,2.736h-6.319l1.58-2.736Z" transform="translate(690.332 -8467.08)" fill="#f086ab"/>
      <path id="Path_3535" data-name="Path 3535" d="M-676.315,8467.08l1.58,2.737,1.58,2.736h-6.319l1.58-2.736Z" transform="translate(693.899 -8467.08)" fill="#f086ab"/>
      <circle id="Ellipse_86" data-name="Ellipse 86" cx="2.28" cy="2.28" r="2.28" transform="translate(6.438 7.927)" fill="#fff"/>
      <circle id="Ellipse_87" data-name="Ellipse 87" cx="2.28" cy="2.28" r="2.28" transform="translate(13.114 7.927)" fill="#fff"/>
      <circle id="Ellipse_88" data-name="Ellipse 88" cx="1.462" cy="1.462" r="1.462" transform="translate(7.256 8.745)"/>
      <circle id="Ellipse_89" data-name="Ellipse 89" cx="1.462" cy="1.462" r="1.462" transform="translate(13.931 8.745)"/>
      <path id="Path_3536" data-name="Path 3536" d="M-683.3,8501.339h0a1.5,1.5,0,0,1-1.5-1.5v-7.15h3.763l-.783,7.309A1.494,1.494,0,0,1-683.3,8501.339Z" transform="translate(691.407 -8455.073)" fill="#f086ab"/>
      <path id="Path_3537" data-name="Path 3537" d="M-677.677,8501.339h0a1.5,1.5,0,0,1-1.486-1.337l-.781-7.309h3.763v7.15A1.5,1.5,0,0,1-677.677,8501.339Z" transform="translate(693.679 -8455.073)" fill="#f086ab"/>
      <rect id="Rectangle_1492" data-name="Rectangle 1492" width="10.881" height="2.557" transform="translate(6.615 21.911)" fill="#59aac3"/>
      <rect id="Rectangle_1493" data-name="Rectangle 1493" width="10.881" height="2.557" transform="translate(6.615 27.142)" fill="#59aac3"/>
      <rect id="Rectangle_1494" data-name="Rectangle 1494" width="10.881" height="2.557" transform="translate(6.615 32.381)" fill="#59aac3"/>
      <path id="Path_3538" data-name="Path 3538" d="M-679.159,8475.258a1.463,1.463,0,0,1-1.463,1.464,1.463,1.463,0,0,1-1.461-1.464" transform="translate(692.677 -8463.245)"/>
    </g>
    <path id="パス_37" data-name="パス 37" d="M-627.221,8385.074l25.967,83.227,25.967,83.228H-679.156l25.967-83.228Z" transform="translate(1027.023 -8065.126)" fill="#2a8648"/>
    <path id="Rectangle_1802" data-name="Rectangle 1802" d="M0,0H15.776a0,0,0,0,1,0,0V39.865a0,0,0,0,1,0,0H6.73A6.73,6.73,0,0,1,0,33.135V0A0,0,0,0,1,0,0Z" transform="translate(719.638 274.553)" fill="#ef463a"/>
    <path id="Rectangle_1803" data-name="Rectangle 1803" d="M12.307,0h0a0,0,0,0,1,0,0V21.192A12.307,12.307,0,0,1,0,33.5H0a0,0,0,0,1,0,0V12.307A12.307,12.307,0,0,1,12.307,0Z" transform="translate(735.413 280.919)" fill="#ef463a"/>
    <g id="Group_2332" data-name="Group 2332" transform="translate(699.328 284.551)">
      <path id="Path_3539" data-name="Path 3539" d="M-407.192,8370.679c-2.259,11.047-9.883,17.95-16.7,17.494a12.034,12.034,0,0,1-9.851-6.854,12.307,12.307,0,0,1,2.375-13.032C-426.582,8363.354-416.046,8363.433-407.192,8370.679Z" transform="translate(442.287 -8359.149)" fill="#ffb33e"/>
      <rect id="Rectangle_1497" data-name="Rectangle 1497" width="25.206" height="3.332" transform="translate(26.023 12.876) rotate(-20.606)"/>
      <path id="Path_3540" data-name="Path 3540" d="M-397.484,8366.262l-7.144,2.261-1.637-4.354,6.863-3.006Z" transform="translate(455.61 -8360.885)" fill="#ffb33e"/>
      <rect id="Rectangle_1498" data-name="Rectangle 1498" width="1.079" height="7.162" rx="0.367" transform="matrix(0.936, -0.352, 0.352, 0.936, 50.024, 1.806)" fill="#ffb33e"/>
      <rect id="Rectangle_1499" data-name="Rectangle 1499" width="1.079" height="7.162" rx="0.367" transform="translate(51.939 1.085) rotate(-20.605)" fill="#ffb33e"/>
      <rect id="Rectangle_1500" data-name="Rectangle 1500" width="1.079" height="7.162" rx="0.367" transform="translate(53.815 0.38) rotate(-20.605)" fill="#ffb33e"/>
      <circle id="Ellipse_90" data-name="Ellipse 90" cx="3.469" cy="3.469" r="3.469" transform="translate(21.19 11.699)"/>
      <path id="Path_3541" data-name="Path 3541" d="M-420,8388.3a12.152,12.152,0,0,1-15.648-7.1,12.149,12.149,0,0,1,7.1-15.647" transform="translate(441.472 -8358.826)" fill="#ef463a"/>
      <path id="Path_3542" data-name="Path 3542" d="M-431.043,8375.7l-7.365,2.767-1.453-3.865,8.851,1.185Z" transform="translate(439.862 -8354.587)" fill="#ef463a"/>
    </g>
    <path id="Rectangle_1804" data-name="Rectangle 1804" d="M0,0H21.7a0,0,0,0,1,0,0V9.226a0,0,0,0,1,0,0H7a7,7,0,0,1-7-7V0A0,0,0,0,1,0,0Z" transform="translate(713.406 275.539)" fill="#ef463a"/>
    <rect id="Rectangle_1805" data-name="Rectangle 1805" width="6.753" height="6.753" rx="3.376" transform="translate(728.661 271.177)" fill="#ef463a"/>
    <rect id="Rectangle_1806" data-name="Rectangle 1806" width="6.753" height="6.753" rx="3.376" transform="translate(719.638 271.177)" fill="#ef463a"/>
    <circle id="Ellipse_248" data-name="Ellipse 248" cx="2.119" cy="2.119" r="2.119" transform="translate(721.721 276.681)" fill="#fff"/>
    <circle id="Ellipse_249" data-name="Ellipse 249" cx="2.119" cy="2.119" r="2.119" transform="translate(727.927 276.681)" fill="#fff"/>
    <circle id="Ellipse_250" data-name="Ellipse 250" cx="1.359" cy="1.359" r="1.359" transform="translate(722.48 277.44)"/>
    <circle id="Ellipse_251" data-name="Ellipse 251" cx="1.359" cy="1.359" r="1.359" transform="translate(728.687 277.44)"/>
    <rect id="Rectangle_1807" data-name="Rectangle 1807" width="3.262" height="3.262" transform="translate(713.406 275.539)"/>
    <ellipse id="Ellipse_252" data-name="Ellipse 252" cx="1.54" cy="1.682" rx="1.54" ry="1.682" transform="translate(716.667 280.665)" fill="#f086ab"/>
    <path id="Path_5075" data-name="Path 5075" d="M-417.954,8387.46H-420v-6.187h3.768Z" transform="translate(1148.499 -8066.908)" fill="#ef463a"/>
    <path id="Path_5076" data-name="Path 5076" d="M-415.388,8387.46h-2.048v-6.187h3.768Z" transform="translate(1149.701 -8066.908)" fill="#ef463a"/>
    <rect id="Rectangle_1808" data-name="Rectangle 1808" width="3.189" height="11.058" rx="1.594" transform="translate(717.041 289.77) rotate(-22.722)" fill="#ef463a"/>
    <rect id="Rectangle_1809" data-name="Rectangle 1809" width="2.949" height="11.058" rx="1.475" transform="translate(740.579 303.083) rotate(-161.765)" fill="#ef463a"/>
    <g id="Group_2333" data-name="Group 2333" transform="translate(518.341 403.332)">
      <rect id="Rectangle_1507" data-name="Rectangle 1507" width="17.711" height="13.91" rx="6.955" transform="translate(15.999 150.338)" fill="#59aac3"/>
      <path id="Path_3545" data-name="Path 3545" d="M-533.236,8572.928h-2.274v-11.081h-6.742v-2.273h9.016Z" transform="translate(572.855 -8399.588)" fill="#59aac3"/>
      <path id="Path_3546" data-name="Path 3546" d="M-553.708,8572.928h-2.274v-13.354h9.269v2.273h-6.995Z" transform="translate(566.418 -8399.588)" fill="#59aac3"/>
      <path id="Path_3547" data-name="Path 3547" d="M-540.122,8567.873H-542.4v-6.026h-2.174v-2.273h4.448Z" transform="translate(571.768 -8399.588)" fill="#59aac3"/>
      <path id="Path_3548" data-name="Path 3548" d="M-548.515,8572.494h-2.274v-12.921h4.554v2.273h-2.28Z" transform="translate(568.853 -8399.588)" fill="#59aac3"/>
      <path id="Path_3549" data-name="Path 3549" d="M-558.328,8575.16H-560.6v-18.569l14.669,1.94-.3,2.254-12.1-1.6Z" transform="translate(564.253 -8400.984)" fill="#59aac3"/>
      <path id="Path_3550" data-name="Path 3550" d="M-547.406,8569.622v-6.333h-3.91v7.648a2.173,2.173,0,0,0,2.391,1.849h2.626a1.519,1.519,0,0,0,1.68-1.582h0a1.519,1.519,0,0,0-1.68-1.582Z" transform="translate(568.606 -8397.843)" fill="#ef463a"/>
      <path id="Path_3551" data-name="Path 3551" d="M-552.845,8569.622v-6.333h-3.91v7.648a2.173,2.173,0,0,0,2.391,1.849h2.625a1.519,1.519,0,0,0,1.682-1.582h0a1.52,1.52,0,0,0-1.682-1.582Z" transform="translate(566.057 -8397.843)" fill="#ef463a"/>
      <path id="Path_3552" data-name="Path 3552" d="M-542.86,8569.622v-6.333h3.911v7.648a2.173,2.173,0,0,1-2.393,1.849h-2.625a1.519,1.519,0,0,1-1.682-1.582h0a1.52,1.52,0,0,1,1.682-1.582Z" transform="translate(571.263 -8397.843)" fill="#ef463a"/>
      <path id="Path_3553" data-name="Path 3553" d="M-537.348,8569.622v-6.333h3.91v7.648a2.173,2.173,0,0,1-2.391,1.849h-2.626a1.519,1.519,0,0,1-1.68-1.582h0a1.519,1.519,0,0,1,1.68-1.582Z" transform="translate(573.846 -8397.843)" fill="#ef463a"/>
      <path id="Path_3554" data-name="Path 3554" d="M-560.3,8569.622v-6.333h3.91v7.648a2.173,2.173,0,0,1-2.391,1.849h-2.626a1.519,1.519,0,0,1-1.68-1.582h0a1.519,1.519,0,0,1,1.68-1.582Z" transform="translate(563.088 -8397.843)" fill="#ef463a"/>
      <path id="Path_3555" data-name="Path 3555" d="M-526.851,8575.16h-2.275v-15.974l-12.1,1.6-.3-2.254,14.669-1.94Z" transform="translate(573.197 -8400.984)" fill="#59aac3"/>
      <path id="Path_3556" data-name="Path 3556" d="M-547.006,8563.517h-9.016V8550.16h2.274v11.083h6.742Z" transform="translate(566.4 -8403.997)" fill="#59aac3"/>
      <path id="Path_3557" data-name="Path 3557" d="M-533.195,8563.517h-9.269v-2.273h6.994V8550.16h2.274Z" transform="translate(572.755 -8403.997)" fill="#59aac3"/>
      <circle id="Ellipse_96" data-name="Ellipse 96" cx="1.668" cy="1.668" r="1.668" transform="translate(20.745 154.753)" fill="#fff"/>
      <circle id="Ellipse_97" data-name="Ellipse 97" cx="1.668" cy="1.668" r="1.668" transform="translate(25.629 154.753)" fill="#fff"/>
      <circle id="Ellipse_98" data-name="Ellipse 98" cx="1.07" cy="1.07" r="1.07" transform="translate(21.343 155.351)"/>
      <circle id="Ellipse_99" data-name="Ellipse 99" cx="1.07" cy="1.07" r="1.07" transform="translate(26.227 155.351)"/>
      <path id="Path_3558" data-name="Path 3558" d="M-552.845,8550.642v6.331h-3.91v-7.646a2.173,2.173,0,0,1,2.391-1.85h2.625a1.519,1.519,0,0,1,1.682,1.582h0a1.519,1.519,0,0,1-1.682,1.582Z" transform="translate(566.057 -8405.257)" fill="#ef463a"/>
      <path id="Path_3559" data-name="Path 3559" d="M-537.348,8550.642v6.331h3.91v-7.646a2.173,2.173,0,0,0-2.391-1.85h-2.626a1.519,1.519,0,0,0-1.68,1.582h0a1.519,1.519,0,0,0,1.68,1.582Z" transform="translate(573.846 -8405.257)" fill="#ef463a"/>
      <path id="Path_3560" data-name="Path 3560" d="M-543.469,8558.825a2.142,2.142,0,0,1-2.044,2.23,2.142,2.142,0,0,1-2.043-2.23" transform="translate(570.368 -8399.939)" fill="#f086ab"/>
      <path id="Path_3561" data-name="Path 3561" d="M-529.872,8569.622v-6.333h-3.911v7.648a2.173,2.173,0,0,0,2.391,1.849h2.626a1.519,1.519,0,0,0,1.682-1.582h0a1.52,1.52,0,0,0-1.682-1.582Z" transform="translate(576.824 -8397.843)" fill="#ef463a"/>
      <rect id="Rectangle_1508" data-name="Rectangle 1508" width="0.348" height="150.336" transform="translate(24.681)" fill="#59aac3"/>
    </g>
    <path id="Path_5077" data-name="Path 5077" d="M-297.949,8550.692H-346.3V8384.753h48.349a82.644,82.644,0,0,1,52.775,18.945,82.8,82.8,0,0,1,30.194,64.022h0a82.72,82.72,0,0,1-6.52,32.3A82.994,82.994,0,0,1-297.949,8550.692Z" transform="translate(1182.874 -8065.278)" fill="#fa0"/>
    <g id="Group_2335" data-name="Group 2335" transform="translate(910.37 449.594)">
      <path id="Path_3562" data-name="Path 3562" d="M-281.115,8505.226l1.373.575,2.359-5.631-2.527-1.06Z" transform="translate(303.23 -8461.266)" fill="#ffb33e"/>
      <path id="Path_3563" data-name="Path 3563" d="M-278.14,8506.32l-1.373-.578,2.359-5.631,2.527,1.057Z" transform="translate(303.98 -8460.798)" fill="#ffb33e"/>
      <path id="Rectangle_1509" data-name="Rectangle 1509" d="M0,0H19.873a0,0,0,0,1,0,0V19.873a0,0,0,0,1,0,0h0A19.873,19.873,0,0,1,0,0V0A0,0,0,0,1,0,0Z" transform="translate(7.677 9.748) rotate(22.725)" fill="#1f2e7e"/>
      <path id="Rectangle_1510" data-name="Rectangle 1510" d="M19.047,0h0a0,0,0,0,1,0,0V19.873a0,0,0,0,1,0,0H0a0,0,0,0,1,0,0v-.826A19.047,19.047,0,0,1,19.047,0Z" transform="translate(52.07 49.885) rotate(-157.275)" fill="#1f2e7e"/>
      <path id="Rectangle_1511" data-name="Rectangle 1511" d="M6.362,0h5.965a6.362,6.362,0,0,1,6.362,6.362V31.536a0,0,0,0,1,0,0H0a0,0,0,0,1,0,0V6.362A6.362,6.362,0,0,1,6.362,0Z" transform="translate(30.497 4.748) rotate(22.725)" fill="#ffb33e"/>
      <circle id="Ellipse_100" data-name="Ellipse 100" cx="2.505" cy="2.505" r="2.505" transform="translate(31.424 18.237)" fill="#1f2e7e"/>
      <path id="Path_3564" data-name="Path 3564" d="M-266.928,8510.558l-17.238-7.219,7.677-18.329,15.448,11.5Z" transform="translate(301.799 -8467.878)" fill="#1f2e7e"/>
      <path id="Path_3565" data-name="Path 3565" d="M-284.166,8501.974l17.238,7.222,7.677-18.333-19.029-2.941Z" transform="translate(301.799 -8466.512)" fill="#1f2e7e"/>
      <circle id="Ellipse_101" data-name="Ellipse 101" cx="2.574" cy="2.574" r="2.574" transform="translate(29.744 12.262)" fill="#fff"/>
      <circle id="Ellipse_102" data-name="Ellipse 102" cx="2.574" cy="2.574" r="2.574" transform="translate(36.696 15.174)" fill="#fff"/>
      <circle id="Ellipse_103" data-name="Ellipse 103" cx="1.651" cy="1.651" r="1.651" transform="translate(30.667 13.184)"/>
      <circle id="Ellipse_104" data-name="Ellipse 104" cx="1.651" cy="1.651" r="1.651" transform="translate(37.619 16.096)"/>
      <rect id="Rectangle_1512" data-name="Rectangle 1512" width="14.269" height="3.133" transform="translate(30.483 10.67) rotate(22.725)" fill="#1e9846"/>
      <path id="Path_3566" data-name="Path 3566" d="M-259.973,8492.145l-17.656-7.4a1.835,1.835,0,0,1-.191-.088,1.855,1.855,0,0,1-.009-3.186l7.69-4.752a7.09,7.09,0,0,1,6.461-.509h0a7.092,7.092,0,0,1,4.171,4.961l2.009,8.813a1.855,1.855,0,0,1-2.277,2.229C-259.839,8492.2-259.906,8492.172-259.973,8492.145Z" transform="translate(304.349 -8472.259)" fill="#1f2e7e"/>
      <g id="Group_2055" data-name="Group 2055" transform="translate(18.998 42.193)">
        <path id="Path_3567" data-name="Path 3567" d="M-280.972,8503.932l-.859-.359a1.074,1.074,0,0,0-1.406.579l1.849.771,2.065.865.416-.99.78-1.86-2.065-.864Z" transform="translate(283.237 -8502.072)" fill="#1f2e7e"/>
        <path id="Path_3568" data-name="Path 3568" d="M-276.568,8506.025l-.858-.359.78-1.861-2.065-.863-.78,1.862-.416.988,2.065.866,1.849.773A1.074,1.074,0,0,0-276.568,8506.025Z" transform="translate(284.798 -8501.666)" fill="#1f2e7e"/>
      </g>
      <path id="Rectangle_1513" data-name="Rectangle 1513" d="M2.919,0H4.288a0,0,0,0,1,0,0V1.368A2.919,2.919,0,0,1,1.368,4.288H0a0,0,0,0,1,0,0V2.919A2.919,2.919,0,0,1,2.919,0Z" transform="matrix(0.922, 0.386, -0.386, 0.922, 42.329, 0)" fill="#1f2e7e"/>
    </g>
  </g>
</svg>
