<svg id="Group_2725" data-name="Group 2725" xmlns="http://www.w3.org/2000/svg" width="380.171" height="76.812" viewBox="0 0 380.171 76.812">
  <path id="パス_49" data-name="パス 49" d="M496.873,1097.865l-31.177.031,12.877-35.353,31.179-.031Z" transform="translate(-212.448 -1021.324)" fill="#59aac3"/>
  <rect id="長方形_66" data-name="長方形 66" width="2.012" height="21.883" transform="matrix(1, -0.001, 0.001, 1, 177.165, 10.76)" fill="#59aac3"/>
  <rect id="長方形_67" data-name="長方形 67" width="2.012" height="21.883" transform="matrix(1, -0.001, 0.001, 1, 180.502, 10.757)" fill="#59aac3"/>
  <rect id="長方形_68" data-name="長方形 68" width="2.012" height="21.883" transform="matrix(1, -0.001, 0.001, 1, 183.919, 10.752)" fill="#59aac3"/>
  <rect id="長方形_69" data-name="長方形 69" width="2.012" height="21.883" transform="matrix(1, -0.001, 0.001, 1, 167.074, 10.77)" fill="#59aac3"/>
  <rect id="長方形_70" data-name="長方形 70" width="2.012" height="21.883" transform="matrix(1, -0.001, 0.001, 1, 170.412, 10.766)" fill="#59aac3"/>
  <rect id="長方形_71" data-name="長方形 71" width="2.012" height="21.883" transform="matrix(1, -0.001, 0.001, 1, 163.591, 10.774)" fill="#59aac3"/>
  <rect id="長方形_72" data-name="長方形 72" width="2.012" height="21.883" transform="matrix(1, -0.001, 0.001, 1, 173.828, 10.762)" fill="#59aac3"/>
  <rect id="長方形_73" data-name="長方形 73" width="2.012" height="21.883" transform="matrix(1, -0.001, 0.001, 1, 200.867, 10.736)" fill="#59aac3"/>
  <rect id="長方形_74" data-name="長方形 74" width="2.012" height="21.883" transform="matrix(1, -0.001, 0.001, 1, 204.204, 10.732)" fill="#59aac3"/>
  <rect id="長方形_75" data-name="長方形 75" width="2.012" height="21.883" transform="matrix(1, -0.001, 0.001, 1, 207.621, 10.728)" fill="#59aac3"/>
  <rect id="長方形_76" data-name="長方形 76" width="2.012" height="21.883" transform="matrix(1, -0.001, 0.001, 1, 211.025, 10.725)" fill="#59aac3"/>
  <rect id="長方形_77" data-name="長方形 77" width="2.012" height="21.883" transform="matrix(1, -0.001, 0.001, 1, 214.362, 10.722)" fill="#59aac3"/>
  <rect id="長方形_78" data-name="長方形 78" width="2.012" height="21.883" transform="matrix(1, -0.001, 0.001, 1, 217.781, 10.718)" fill="#59aac3"/>
  <rect id="長方形_79" data-name="長方形 79" width="2.012" height="21.883" transform="matrix(1, -0.001, 0.001, 1, 190.777, 10.746)" fill="#59aac3"/>
  <rect id="長方形_80" data-name="長方形 80" width="2.012" height="21.883" transform="matrix(1, -0.001, 0.001, 1, 194.114, 10.742)" fill="#59aac3"/>
  <rect id="長方形_81" data-name="長方形 81" width="2.012" height="21.883" transform="matrix(1, -0.001, 0.001, 1, 187.294, 10.748)" fill="#59aac3"/>
  <rect id="長方形_82" data-name="長方形 82" width="2.012" height="21.883" transform="matrix(1, -0.001, 0.001, 1, 197.53, 10.738)" fill="#59aac3"/>
  <path id="パス_51" data-name="パス 51" d="M443.076,1101.64l-29.685.029,15.959-44.229,29.7-.031Z" transform="translate(-250.179 -1025.005)" fill="#59aac3"/>
  <path id="パス_52" data-name="パス 52" d="M335.666,1101.742l31.177-.031-16.182-44.2-31.165.032Z" transform="translate(-317.912 -1024.93)" fill="#59aac3"/>
  <path id="パス_53" data-name="パス 53" d="M530.361,1097.921h0a25.228,25.228,0,0,0,23.607-34.057l-.584-1.585-36.319.038Z" transform="translate(-175.392 -1021.492)" fill="#59aac3"/>
  <path id="パス_54" data-name="パス 54" d="M426.143,1082.811l-31.179.033,16.093-44.227,31.179-.033Z" transform="translate(-263.471 -1038.585)" fill="#59aac3"/>
  <ellipse id="楕円形_26" data-name="楕円形 26" cx="8.531" cy="8.531" rx="8.531" ry="8.531" transform="translate(225.441 39.021)" fill="#59aac3"/>
  <ellipse id="楕円形_27" data-name="楕円形 27" cx="8.531" cy="8.531" rx="8.531" ry="8.531" transform="translate(244.031 39.002)" fill="#59aac3"/>
  <rect id="長方形_83" data-name="長方形 83" width="2.012" height="21.883" transform="matrix(1, -0.001, 0.001, 1, 86.657, 54.637)" fill="#59aac3"/>
  <rect id="長方形_84" data-name="長方形 84" width="2.012" height="21.883" transform="matrix(1, -0.001, 0.001, 1, 89.991, 54.633)" fill="#59aac3"/>
  <rect id="長方形_85" data-name="長方形 85" width="2.012" height="21.883" transform="matrix(1, -0.001, 0.001, 1, 93.41, 54.63)" fill="#59aac3"/>
  <rect id="長方形_86" data-name="長方形 86" width="2.012" height="21.883" transform="matrix(1, -0.001, 0.001, 1, 76.563, 54.647)" fill="#59aac3"/>
  <rect id="長方形_87" data-name="長方形 87" width="2.012" height="21.883" transform="matrix(1, -0.001, 0.001, 1, 79.9, 54.644)" fill="#59aac3"/>
  <rect id="長方形_88" data-name="長方形 88" width="2.012" height="21.883" transform="matrix(1, -0.001, 0.001, 1, 73.083, 54.65)" fill="#59aac3"/>
  <rect id="長方形_89" data-name="長方形 89" width="2.012" height="21.883" transform="matrix(1, -0.001, 0.001, 1, 83.32, 54.64)" fill="#59aac3"/>
  <rect id="長方形_90" data-name="長方形 90" width="2.012" height="21.883" transform="matrix(1, -0.001, 0.001, 1, 110.359, 54.613)" fill="#59aac3"/>
  <rect id="長方形_91" data-name="長方形 91" width="2.012" height="21.883" transform="matrix(1, -0.001, 0.001, 1, 113.693, 54.609)" fill="#59aac3"/>
  <rect id="長方形_92" data-name="長方形 92" width="2.012" height="21.883" transform="matrix(1, -0.001, 0.001, 1, 117.112, 54.605)" fill="#59aac3"/>
  <rect id="長方形_93" data-name="長方形 93" width="2.012" height="21.883" transform="matrix(1, -0.001, 0.001, 1, 120.516, 54.603)" fill="#59aac3"/>
  <rect id="長方形_94" data-name="長方形 94" width="2.012" height="21.883" transform="matrix(1, -0.001, 0.001, 1, 123.853, 54.599)" fill="#59aac3"/>
  <rect id="長方形_95" data-name="長方形 95" width="2.012" height="21.883" transform="matrix(1, -0.001, 0.001, 1, 127.27, 54.595)" fill="#59aac3"/>
  <rect id="長方形_96" data-name="長方形 96" width="2.012" height="21.883" transform="matrix(1, -0.001, 0.001, 1, 100.265, 54.623)" fill="#59aac3"/>
  <rect id="長方形_97" data-name="長方形 97" width="2.012" height="21.883" transform="matrix(1, -0.001, 0.001, 1, 103.602, 54.619)" fill="#59aac3"/>
  <rect id="長方形_98" data-name="長方形 98" width="2.012" height="21.883" transform="matrix(1, -0.001, 0.001, 1, 96.785, 54.627)" fill="#59aac3"/>
  <rect id="長方形_99" data-name="長方形 99" width="2.012" height="21.883" transform="matrix(1, -0.001, 0.001, 1, 107.022, 54.617)" fill="#59aac3"/>
  <rect id="長方形_100" data-name="長方形 100" width="29.524" height="2.012" transform="matrix(1, -0.001, 0.001, 1, 308.889, 20.425)" fill="#59aac3"/>
  <rect id="長方形_101" data-name="長方形 101" width="29.524" height="2.012" transform="matrix(1, -0.001, 0.001, 1, 308.872, 3.66)" fill="#59aac3"/>
  <rect id="長方形_102" data-name="長方形 102" width="29.524" height="2.012" transform="matrix(1, -0.001, 0.001, 1, 308.875, 6.994)" fill="#59aac3"/>
  <rect id="長方形_103" data-name="長方形 103" width="29.524" height="2.012" transform="matrix(1, -0.001, 0.001, 1, 308.879, 10.33)" fill="#59aac3"/>
  <rect id="長方形_104" data-name="長方形 104" width="29.524" height="2.012" transform="matrix(1, -0.001, 0.001, 1, 308.882, 13.668)" fill="#59aac3"/>
  <rect id="長方形_105" data-name="長方形 105" width="29.524" height="2.012" transform="matrix(1, -0.001, 0.001, 1, 308.886, 17.088)" fill="#59aac3"/>
  <rect id="長方形_106" data-name="長方形 106" width="29.524" height="2.012" transform="matrix(1, -0.001, 0.001, 1, 308.903, 33.852)" fill="#59aac3"/>
  <rect id="長方形_107" data-name="長方形 107" width="29.524" height="2.012" transform="matrix(1, -0.001, 0.001, 1, 308.906, 37.185)" fill="#59aac3"/>
  <rect id="長方形_108" data-name="長方形 108" width="29.524" height="2.012" transform="matrix(1, -0.001, 0.001, 1, 308.91, 40.606)" fill="#59aac3"/>
  <rect id="長方形_109" data-name="長方形 109" width="29.524" height="2.012" transform="matrix(1, -0.001, 0.001, 1, 308.893, 23.759)" fill="#59aac3"/>
  <rect id="長方形_110" data-name="長方形 110" width="29.524" height="2.012" transform="matrix(1, -0.001, 0.001, 1, 308.896, 27.095)" fill="#59aac3"/>
  <rect id="長方形_111" data-name="長方形 111" width="29.524" height="2.012" transform="matrix(1, -0.001, 0.001, 1, 308.9, 30.515)" fill="#59aac3"/>
  <rect id="長方形_112" data-name="長方形 112" width="29.524" height="2.012" transform="matrix(1, -0.001, 0.001, 1, 308.927, 57.554)" fill="#59aac3"/>
  <rect id="長方形_113" data-name="長方形 113" width="29.524" height="2.012" transform="matrix(1, -0.001, 0.001, 1, 308.93, 60.891)" fill="#59aac3"/>
  <rect id="長方形_114" data-name="長方形 114" width="29.524" height="2.012" transform="matrix(1, -0.001, 0.001, 1, 308.934, 64.308)" fill="#59aac3"/>
  <rect id="長方形_115" data-name="長方形 115" width="29.524" height="2.012" transform="matrix(1, -0.001, 0.001, 1, 308.937, 67.713)" fill="#59aac3"/>
  <rect id="長方形_116" data-name="長方形 116" width="29.524" height="2.012" transform="matrix(1, -0.001, 0.001, 1, 308.941, 71.049)" fill="#59aac3"/>
  <rect id="長方形_117" data-name="長方形 117" width="29.524" height="2.012" transform="matrix(1, -0.001, 0.001, 1, 308.944, 74.468)" fill="#59aac3"/>
  <rect id="長方形_118" data-name="長方形 118" width="29.524" height="2.012" transform="matrix(1, -0.001, 0.001, 1, 308.916, 47.461)" fill="#59aac3"/>
  <rect id="長方形_119" data-name="長方形 119" width="29.524" height="2.012" transform="matrix(1, -0.001, 0.001, 1, 308.92, 50.797)" fill="#59aac3"/>
  <rect id="長方形_120" data-name="長方形 120" width="29.524" height="2.012" transform="matrix(1, -0.001, 0.001, 1, 308.913, 43.981)" fill="#59aac3"/>
  <rect id="長方形_121" data-name="長方形 121" width="29.524" height="2.012" transform="matrix(1, -0.001, 0.001, 1, 308.924, 54.218)" fill="#59aac3"/>
  <rect id="長方形_122" data-name="長方形 122" width="2.012" height="21.883" transform="matrix(1, -0.001, 0.001, 1, 13.428, 2.962)" fill="#59aac3"/>
  <rect id="長方形_123" data-name="長方形 123" width="2.012" height="21.883" transform="matrix(1, -0.001, 0.001, 1, 16.765, 2.958)" fill="#59aac3"/>
  <rect id="長方形_124" data-name="長方形 124" width="2.012" height="21.883" transform="matrix(1, -0.001, 0.001, 1, 20.181, 2.956)" fill="#59aac3"/>
  <rect id="長方形_125" data-name="長方形 125" width="2.012" height="21.883" transform="matrix(1, -0.001, 0.001, 1, 0, 2.976)" fill="#59aac3"/>
  <rect id="長方形_126" data-name="長方形 126" width="2.012" height="21.883" transform="matrix(1, -0.001, 0.001, 1, 3.337, 2.972)" fill="#59aac3"/>
  <rect id="長方形_127" data-name="長方形 127" width="2.012" height="21.883" transform="matrix(1, -0.001, 0.001, 1, 6.671, 2.968)" fill="#59aac3"/>
  <rect id="長方形_128" data-name="長方形 128" width="2.012" height="21.883" transform="matrix(1, -0.001, 0.001, 1, 10.091, 2.966)" fill="#59aac3"/>
  <rect id="長方形_129" data-name="長方形 129" width="2.012" height="21.883" transform="matrix(1, -0.001, 0.001, 1, 37.13, 2.938)" fill="#59aac3"/>
  <rect id="長方形_130" data-name="長方形 130" width="2.012" height="21.883" transform="matrix(1, -0.001, 0.001, 1, 40.467, 2.934)" fill="#59aac3"/>
  <rect id="長方形_131" data-name="長方形 131" width="2.012" height="21.883" transform="matrix(1, -0.001, 0.001, 1, 43.884, 2.931)" fill="#59aac3"/>
  <rect id="長方形_132" data-name="長方形 132" width="2.012" height="21.883" transform="matrix(1, -0.001, 0.001, 1, 47.287, 2.928)" fill="#59aac3"/>
  <rect id="長方形_133" data-name="長方形 133" width="2.012" height="21.883" transform="matrix(1, -0.001, 0.001, 1, 50.624, 2.924)" fill="#59aac3"/>
  <rect id="長方形_134" data-name="長方形 134" width="2.012" height="21.883" transform="matrix(1, -0.001, 0.001, 1, 54.044, 2.921)" fill="#59aac3"/>
  <rect id="長方形_135" data-name="長方形 135" width="2.012" height="21.883" transform="matrix(1, -0.001, 0.001, 1, 27.039, 2.948)" fill="#59aac3"/>
  <rect id="長方形_136" data-name="長方形 136" width="2.012" height="21.883" transform="matrix(1, -0.001, 0.001, 1, 30.377, 2.945)" fill="#59aac3"/>
  <rect id="長方形_137" data-name="長方形 137" width="2.012" height="21.883" transform="matrix(1, -0.001, 0.001, 1, 23.556, 2.952)" fill="#59aac3"/>
  <rect id="長方形_138" data-name="長方形 138" width="2.012" height="21.883" transform="matrix(1, -0.001, 0.001, 1, 33.793, 2.942)" fill="#59aac3"/>
  <path id="パス_55" data-name="パス 55" d="M356.064,1040.284h0a25.231,25.231,0,0,1,23.677,34.011l-.582,1.585-36.319.036Z" transform="translate(-301.072 -1037.359)" fill="#59aac3"/>
</svg>
