<svg id="Group_2721" data-name="Group 2721" xmlns="http://www.w3.org/2000/svg" xmlns:xlink="http://www.w3.org/1999/xlink" width="260.517" height="77.076" viewBox="0 0 260.517 77.076">
  <defs>
    <clipPath id="clip-path">
      <path id="Path_1294" data-name="Path 1294" d="M506.783,1264.524l0,2.064-21.957.024,0-2.066Zm0,3.507,0,2.064-21.957.024,0-2.064Zm.017,17.383,0,2.064-21.957.025,0-2.065Zm-.01-10.351,0,2.064-21.957.022,0-2.064Zm0,3.423,0,2.065-21.957.022,0-2.064Zm-.007-7,0,2.064-21.957.023,0-2.064Zm.011,10.5,0,2.064-21.957.022,0-2.064Z" transform="translate(-484.826 -1264.524)" fill="#93b82c"/>
    </clipPath>
    <clipPath id="clip-path-2">
      <path id="Path_1295" data-name="Path 1295" d="M518.238,1264.513l0,2.065-21.957.024,0-2.064Zm0,3.508,0,2.064-21.957.025,0-2.065Zm.017,17.383,0,2.066-21.957.023,0-2.064Zm-.01-10.35,0,2.064-21.957.023,0-2.064Zm0,3.423,0,2.064-21.957.022,0-2.064Zm-.007-7,0,2.064-21.957.024,0-2.066Zm.01,10.5,0,2.064-21.957.024,0-2.066Z" transform="translate(-496.281 -1264.513)" fill="#93b82c"/>
    </clipPath>
  </defs>
  <rect id="長方形_65" data-name="長方形 65" width="75.7" height="12.451" transform="matrix(1, -0.001, 0.001, 1, 0, 29.071)" fill="#93b82c"/>
  <path id="パス_46" data-name="パス 46" d="M396.77,1325.209l-29.163.031,13.446-38.263,29.166-.03Z" transform="translate(-357.504 -1248.164)" fill="#93b82c"/>
  <rect id="長方形_171" data-name="長方形 171" width="1.977" height="21.977" transform="matrix(1, -0.001, 0.001, 1, 35.101, 2.564)" fill="#93b82c"/>
  <rect id="長方形_172" data-name="長方形 172" width="1.977" height="21.977" transform="translate(38.379 2.561) rotate(-0.06)" fill="#93b82c"/>
  <rect id="長方形_173" data-name="長方形 173" width="1.977" height="21.977" transform="matrix(1, -0.001, 0.001, 1, 41.739, 2.558)" fill="#93b82c"/>
  <rect id="長方形_174" data-name="長方形 174" width="1.977" height="21.977" transform="matrix(1, -0.001, 0.001, 1, 18.494, 2.583)" fill="#93b82c"/>
  <rect id="長方形_175" data-name="長方形 175" width="1.977" height="21.977" transform="matrix(1, -0.001, 0.001, 1, 21.77, 2.579)" fill="#93b82c"/>
  <rect id="長方形_176" data-name="長方形 176" width="1.977" height="21.977" transform="matrix(1, -0.001, 0.001, 1, 25.188, 2.576)" fill="#93b82c"/>
  <rect id="長方形_177" data-name="長方形 177" width="1.977" height="21.977" transform="matrix(1, -0.001, 0.001, 1, 28.467, 2.571)" fill="#93b82c"/>
  <rect id="長方形_178" data-name="長方形 178" width="1.977" height="21.977" transform="translate(31.823 2.569) rotate(-0.06)" fill="#93b82c"/>
  <rect id="長方形_179" data-name="長方形 179" width="1.977" height="21.977" transform="matrix(1, -0.001, 0.001, 1, 58.385, 2.541)" fill="#93b82c"/>
  <rect id="長方形_180" data-name="長方形 180" width="1.977" height="21.977" transform="matrix(1, -0.001, 0.001, 1, 48.473, 2.55)" fill="#93b82c"/>
  <rect id="長方形_181" data-name="長方形 181" width="1.977" height="21.977" transform="translate(51.751 2.548) rotate(-0.06)" fill="#93b82c"/>
  <rect id="長方形_182" data-name="長方形 182" width="1.977" height="21.977" transform="translate(45.054 2.555) rotate(-0.06)" fill="#93b82c"/>
  <rect id="長方形_183" data-name="長方形 183" width="1.977" height="21.977" transform="matrix(1, -0.001, 0.001, 1, 55.11, 2.545)" fill="#93b82c"/>
  <rect id="長方形_184" data-name="長方形 184" width="1.977" height="21.977" transform="translate(61.663 2.538) rotate(-0.06)" fill="#93b82c"/>
  <path id="パス_48" data-name="パス 48" d="M514.033,1331.07l-29.163.031,18.53-52.457,29.163-.031Z" transform="translate(-272.047 -1254.236)" fill="#93b82c"/>
  <g id="Group_1505" data-name="Group 1505" transform="translate(212.748 0.021)">
    <g id="Group_1504" data-name="Group 1504" clip-path="url(#clip-path)">
      <ellipse id="楕円形_27" data-name="楕円形 27" cx="8.56" cy="8.752" rx="8.56" ry="8.752" transform="translate(4.022 2.736)" fill="#93b82c"/>
    </g>
  </g>
  <g id="Group_1507" data-name="Group 1507" transform="translate(232.551)">
    <g id="Group_1506" data-name="Group 1506" clip-path="url(#clip-path-2)">
      <ellipse id="楕円形_27-2" data-name="楕円形 27" cx="8.56" cy="8.752" rx="8.56" ry="8.752" transform="translate(4.022 2.736)" fill="#93b82c"/>
    </g>
  </g>
  <path id="パス_64" data-name="パス 64" d="M487.875,1281.676h0a17.137,17.137,0,0,0-16.925,17.344,17.654,17.654,0,0,0,1.07,6.039l.394,1.085,24.4-.026Z" transform="translate(-282.191 -1252.005)" fill="#93b82c"/>
  <path id="パス_65" data-name="パス 65" d="M487.861,1266.646h0a17.135,17.135,0,0,0-16.926,17.336,17.667,17.667,0,0,0,1.072,6.049l.394,1.084,24.4-.024Z" transform="translate(-282.202 -1262.957)" fill="#93b82c"/>
  <path id="パス_53" data-name="パス 53" d="M440.693,1266.7h0c-13.688.016-24.773,11.374-24.758,25.366a25.887,25.887,0,0,0,1.566,8.839l.574,1.591,35.678-.037Z" transform="translate(-322.284 -1262.919)" fill="#93b82c"/>
  <rect id="長方形_154" data-name="長方形 154" width="1.977" height="21.977" transform="matrix(1, -0.001, 0.001, 1, 107.106, 54.998)" fill="#93b82c"/>
  <rect id="長方形_155" data-name="長方形 155" width="1.977" height="21.977" transform="matrix(1, -0.001, 0.001, 1, 110.385, 54.993)" fill="#93b82c"/>
  <rect id="長方形_156" data-name="長方形 156" width="1.977" height="21.977" transform="translate(113.744 54.99) rotate(-0.06)" fill="#93b82c"/>
  <rect id="長方形_157" data-name="長方形 157" width="1.977" height="21.977" transform="translate(97.194 55.006) rotate(-0.06)" fill="#93b82c"/>
  <rect id="長方形_158" data-name="長方形 158" width="1.977" height="21.977" transform="translate(100.472 55.003) rotate(-0.06)" fill="#93b82c"/>
  <rect id="長方形_159" data-name="長方形 159" width="1.977" height="21.977" transform="matrix(1, -0.001, 0.001, 1, 93.772, 55.012)" fill="#93b82c"/>
  <rect id="長方形_160" data-name="長方形 160" width="1.977" height="21.977" transform="translate(103.828 55) rotate(-0.06)" fill="#93b82c"/>
  <rect id="長方形_161" data-name="長方形 161" width="1.977" height="21.977" transform="translate(130.391 54.973) rotate(-0.06)" fill="#93b82c"/>
  <rect id="長方形_162" data-name="長方形 162" width="1.977" height="21.977" transform="translate(133.669 54.968) rotate(-0.06)" fill="#93b82c"/>
  <rect id="長方形_163" data-name="長方形 163" width="1.977" height="21.977" transform="matrix(1, -0.001, 0.001, 1, 137.028, 54.965)" fill="#93b82c"/>
  <rect id="長方形_164" data-name="長方形 164" width="1.977" height="21.977" transform="matrix(1, -0.001, 0.001, 1, 140.372, 54.962)" fill="#93b82c"/>
  <rect id="長方形_165" data-name="長方形 165" width="1.977" height="21.977" transform="translate(143.647 54.96) rotate(-0.06)" fill="#93b82c"/>
  <rect id="長方形_166" data-name="長方形 166" width="1.977" height="21.977" transform="matrix(1, -0.001, 0.001, 1, 147.007, 54.956)" fill="#93b82c"/>
  <rect id="長方形_167" data-name="長方形 167" width="1.977" height="21.977" transform="matrix(1, -0.001, 0.001, 1, 120.478, 54.982)" fill="#93b82c"/>
  <rect id="長方形_168" data-name="長方形 168" width="1.977" height="21.977" transform="matrix(1, -0.001, 0.001, 1, 123.756, 54.979)" fill="#93b82c"/>
  <rect id="長方形_169" data-name="長方形 169" width="1.977" height="21.977" transform="matrix(1, -0.001, 0.001, 1, 117.056, 54.986)" fill="#93b82c"/>
  <rect id="長方形_170" data-name="長方形 170" width="1.977" height="21.977" transform="matrix(1, -0.001, 0.001, 1, 127.112, 54.976)" fill="#93b82c"/>
  <path id="パス_48-2" data-name="パス 48" d="M464.466,1331.122l-29.163.029,18.532-52.457,29.161-.029Z" transform="translate(-308.169 -1254.198)" fill="#93b82c"/>
</svg>
